<svg xmlns="http://www.w3.org/2000/svg" viewBox="0 0 289.04 56.00" fill="none">
  <path fill="#FF1E56" d="M28.00 2.00L54.00 54.00L2.00 54.00Z"/>
  <path fill="#0196FF" d="M28.00 11.71L46.72 49.15L9.28 49.15Z"/>
  <path fill="#FAFAFA" d="M28.00 16.56L43.08 46.72L12.92 46.72Z"/>
  <path fill="#0A0A0A" d="M28.00 23.49L37.88 43.25L18.12 43.25Z"/>
  <g transform="translate(72.00 13.70)">
    <path fill="#0A0A0A" d="M8.42 28.18L8.42 4.24L0.00 4.24L0.00 0.00L21.87 0.00L21.87 4.24L13.45 4.24L13.45 28.18ZM32.22 28.60Q29.95 28.60 28.35 27.67Q26.75 26.73 25.91 25.00Q25.07 23.26 25.07 20.87L25.07 7.48L29.93 7.48L29.93 19.90Q29.93 22.11 30.97 23.30Q32.00 24.50 34.08 24.50Q35.13 24.50 35.97 24.14Q36.81 23.78 37.42 23.12Q38.02 22.46 38.34 21.53Q38.66 20.60 38.66 19.48L38.66 7.48L43.52 7.48L43.52 28.18L38.66 28.18L38.66 24.94L38.56 24.94Q38.02 26.04 37.14 26.86Q36.26 27.69 35.03 28.14Q33.80 28.60 32.22 28.60ZM47.86 28.18L47.86 7.48L52.72 7.48L52.72 11.05L52.82 11.05Q53.30 9.18 54.54 8.12Q55.78 7.06 57.57 7.06Q58.03 7.06 58.44 7.12Q58.84 7.18 59.11 7.25L59.11 11.64Q58.82 11.52 58.29 11.44Q57.76 11.37 57.14 11.37Q55.76 11.37 54.77 11.93Q53.77 12.49 53.25 13.56Q52.72 14.63 52.72 16.16L52.72 28.18ZM73.52 28.60Q72.04 28.60 70.79 28.12Q69.55 27.64 68.61 26.77Q67.67 25.89 67.08 24.67L66.97 24.67L66.97 28.18L62.12 28.18L62.12 0.00L66.97 0.00L66.97 11.03L67.08 11.03Q67.68 9.79 68.63 8.90Q69.58 8.02 70.83 7.54Q72.09 7.06 73.55 7.06Q76.16 7.06 78.07 8.36Q79.98 9.66 81.03 12.07Q82.09 14.48 82.09 17.81L82.09 17.83Q82.09 21.16 81.04 23.57Q79.99 25.99 78.07 27.29Q76.14 28.60 73.52 28.60ZM72.07 24.50Q73.63 24.50 74.77 23.70Q75.91 22.89 76.53 21.39Q77.14 19.89 77.14 17.83L77.14 17.81Q77.14 15.75 76.52 14.26Q75.91 12.77 74.77 11.96Q73.63 11.16 72.07 11.16Q70.57 11.16 69.42 11.98Q68.27 12.80 67.62 14.29Q66.96 15.79 66.96 17.82L66.96 17.84Q66.96 19.86 67.61 21.36Q68.26 22.86 69.41 23.68Q70.56 24.50 72.07 24.50ZM94.74 28.60Q91.70 28.60 89.45 27.30Q87.19 26.00 85.96 23.59Q84.72 21.17 84.72 17.84L84.72 17.80Q84.72 14.47 85.97 12.06Q87.22 9.66 89.47 8.36Q91.72 7.06 94.73 7.06Q97.75 7.06 100.00 8.35Q102.25 9.65 103.50 12.05Q104.75 14.46 104.75 17.80L104.75 17.84Q104.75 21.19 103.51 23.60Q102.27 26.01 100.03 27.30Q97.78 28.60 94.74 28.60ZM94.76 24.66Q96.30 24.66 97.43 23.86Q98.56 23.06 99.18 21.53Q99.80 20.00 99.80 17.84L99.80 17.80Q99.80 15.64 99.18 14.11Q98.55 12.59 97.41 11.79Q96.26 11.00 94.73 11.00Q93.22 11.00 92.07 11.80Q90.93 12.61 90.30 14.12Q89.67 15.64 89.67 17.80L89.67 17.84Q89.67 20.00 90.30 21.53Q90.92 23.06 92.07 23.86Q93.21 24.66 94.76 24.66ZM115.93 28.60Q112.70 28.60 111.13 27.19Q109.56 25.78 109.56 22.58L109.56 11.23L106.63 11.23L106.63 7.48L109.56 7.48L109.56 2.23L114.50 2.23L114.50 7.48L118.34 7.48L118.34 11.23L114.50 11.23L114.50 22.18Q114.50 23.70 115.17 24.27Q115.83 24.85 117.16 24.85Q117.51 24.85 117.80 24.82Q118.09 24.79 118.34 24.76L118.34 28.41Q117.92 28.48 117.30 28.54Q116.68 28.60 115.93 28.60ZM129.08 28.60Q126.81 28.60 125.21 27.67Q123.61 26.73 122.77 25.00Q121.93 23.26 121.93 20.87L121.93 7.48L126.79 7.48L126.79 19.90Q126.79 22.11 127.82 23.30Q128.86 24.50 130.94 24.50Q131.99 24.50 132.83 24.14Q133.67 23.78 134.27 23.12Q134.88 22.46 135.20 21.53Q135.52 20.60 135.52 19.48L135.52 7.48L140.38 7.48L140.38 28.18L135.52 28.18L135.52 24.94L135.41 24.94Q134.87 26.04 133.99 26.86Q133.11 27.69 131.88 28.14Q130.65 28.60 129.08 28.60ZM144.72 28.18L144.72 7.48L149.57 7.48L149.57 10.72L149.68 10.72Q150.49 9.05 152.08 8.06Q153.67 7.06 156.01 7.06Q159.42 7.06 161.29 9.12Q163.16 11.18 163.16 14.79L163.16 28.18L158.30 28.18L158.30 15.76Q158.30 13.55 157.27 12.35Q156.23 11.16 154.16 11.16Q152.76 11.16 151.73 11.79Q150.70 12.42 150.14 13.54Q149.57 14.67 149.57 16.18L149.57 28.18ZM167.40 28.18L167.40 7.48L172.26 7.48L172.26 10.72L172.36 10.72Q173.18 9.05 174.77 8.06Q176.35 7.06 178.70 7.06Q182.11 7.06 183.98 9.12Q185.85 11.18 185.85 14.79L185.85 28.18L180.99 28.18L180.99 15.76Q180.99 13.55 179.96 12.35Q178.92 11.16 176.84 11.16Q175.45 11.16 174.42 11.79Q173.39 12.42 172.83 13.54Q172.26 14.67 172.26 16.18L172.26 28.18ZM199.19 28.60Q196.10 28.60 193.87 27.29Q191.63 25.98 190.44 23.57Q189.24 21.17 189.24 17.88L189.24 17.86Q189.24 14.60 190.44 12.17Q191.64 9.74 193.82 8.40Q196.01 7.06 198.97 7.06Q201.93 7.06 204.08 8.35Q206.23 9.65 207.39 11.99Q208.55 14.33 208.55 17.45L208.55 19.03L191.64 19.03L191.64 15.78L206.23 15.78L203.89 18.81L203.89 16.93Q203.89 14.91 203.27 13.55Q202.65 12.20 201.55 11.53Q200.46 10.86 199.02 10.86Q197.59 10.86 196.46 11.56Q195.34 12.26 194.70 13.61Q194.06 14.97 194.06 16.93L194.06 18.82Q194.06 20.70 194.70 22.04Q195.33 23.38 196.51 24.09Q197.68 24.80 199.30 24.80Q200.51 24.80 201.43 24.42Q202.35 24.05 202.94 23.44Q203.53 22.83 203.76 22.13L203.81 21.99L208.35 21.99L208.30 22.21Q208.06 23.39 207.37 24.53Q206.67 25.67 205.53 26.60Q204.39 27.52 202.80 28.06Q201.22 28.60 199.19 28.60ZM212.19 28.18L212.19 0.00L217.04 0.00L217.04 28.18Z"/>
  </g>
</svg>